<?xml version="1.0" standalone="no"?><!DOCTYPE svg PUBLIC "-//W3C//DTD SVG 1.1//EN" "http://www.w3.org/Graphics/SVG/1.1/DTD/svg11.dtd"><svg t="1600674355420" class="icon" viewBox="0 0 1024 1024" version="1.1" xmlns="http://www.w3.org/2000/svg" p-id="12841" width="150" height="150" xmlns:xlink="http://www.w3.org/1999/xlink"><defs><style type="text/css"></style></defs><path d="M849.3 518.9c-3.6-3.6-3.6-9.5 0-13.1l73-73c3.6-3.6 3.6-9.5 0-13.1l-73.9-73.9c-3.5-3.5-3.6-9.2-0.2-12.8l67.9-73.3c3.4-3.7 3.3-9.5-0.4-13L767.3 104.3c-3.6-3.4-9.2-3.4-12.8 0l-72.8 69.6c-3.6 3.5-9.4 3.4-12.9-0.1L599 104c-3.6-3.6-9.5-3.6-13.1 0l-69.2 69.2c-3.6 3.6-9.5 3.6-13.1 0L434.4 104c-3.6-3.6-9.5-3.6-13.1 0l-69 69c-3.6 3.6-9.5 3.6-13.1-0.1l-69-70.1c-3.6-3.6-9.4-3.7-13-0.2L105.7 248.1c-3.7 3.5-3.8 9.4-0.3 13.1l70 73.3c3.5 3.6 3.4 9.4-0.1 12.9L101.7 421c-3.6 3.6-3.6 9.5 0 13.1l72.8 71.8c3.7 3.6 3.7 9.5 0 13.1l-72.8 72.8c-3.6 3.6-3.6 9.5 0 13.1l72.3 72.3c3.6 3.6 3.6 9.3 0.1 12.9l-69.9 73.1c-3.5 3.7-3.4 9.5 0.2 13L253 921.8c3.6 3.5 9.4 3.5 13 0l70.4-69.3c3.6-3.6 9.4-3.5 13 0l69.3 69.3c3.6 3.6 9.4 3.6 13 0l70.5-69.4c3.6-3.6 9.4-3.5 13 0l69.4 69.4c3.6 3.6 9.5 3.6 13.1 0l67.9-67.9c3.6-3.6 9.5-3.6 13.1 0l68.7 68.7c3.5 3.5 9.1 3.6 12.8 0.3l155.4-142.1c3.8-3.5 4-9.4 0.5-13.1l-68.5-73.9c-3.3-3.6-3.3-9.2 0.2-12.7l74.3-76.4c3.5-3.6 3.5-9.4-0.1-13l-72.7-72.8z m-551.6-90.4l118.5-117.4c3.6-3.6 9.5-3.6 13.1 0l26.2 26.2c3.6 3.6 3.6 9.5 0 13.1L336.9 467.9c-3.6 3.6-9.5 3.6-13.1 0l-26.2-26.2c-3.6-3.7-3.6-9.5 0.1-13.2z m40 197.6L311.5 600c-3.6-3.6-3.6-9.5 0-13.1L572 327.6c3.6-3.6 9.5-3.6 13.1 0l26.2 26.2c3.6 3.6 3.6 9.5 0 13.1L350.8 626.1c-3.6 3.6-9.5 3.6-13.1 0z m100.5 88.6c-3.6 3.6-9.5 3.6-13.1 0l-26.2-26.2c-3.6-3.6-3.6-9.5 0-13.1l260.4-259.2c3.6-3.6 9.5-3.6 13.1 0l26.2 26.2c3.6 3.6 3.6 9.5 0 13.1L438.2 714.7z m274.3-119.9l-126.2 125c-3.6 3.6-9.5 3.6-13.1 0L547 693.6c-3.6-3.6-3.6-9.5 0-13.1l126.2-125c3.6-3.6 9.5-3.6 13.1 0l26.2 26.2c3.6 3.7 3.6 9.5 0 13.1z" p-id="12842"></path></svg>